<?xml version="1.0" encoding="UTF-8"?>
<svg version="1.1" xmlns="http://www.w3.org/2000/svg" width="437" height="585">
<path d="M0 0 C0.79087745 -0.0034177 1.5817549 -0.0068354 2.39659834 -0.01035666 C5.02547864 -0.01690327 7.65331955 0.00498615 10.28210449 0.0269165 C12.17488582 0.02804568 14.0676689 0.02740975 15.96044922 0.02514648 C21.08393355 0.02400116 26.20704156 0.0474812 31.33043861 0.07544231 C36.69024359 0.10048616 42.05005765 0.10280033 47.40991211 0.10754395 C57.55286172 0.11996493 67.6956384 0.15277476 77.83851194 0.1929419 C91.54928479 0.24605715 105.26010508 0.26761216 118.9709549 0.29095078 C140.56373319 0.32853671 162.1561466 0.4082335 183.74890137 0.48101807 C183.74890137 29.85101807 183.74890137 59.22101807 183.74890137 89.48101807 C145.13890137 89.48101807 106.52890137 89.48101807 66.74890137 89.48101807 C66.74890137 174.95101807 66.74890137 260.42101807 66.74890137 348.48101807 C152.21890137 348.48101807 237.68890137 348.48101807 325.74890137 348.48101807 C325.74890137 308.88101807 325.74890137 269.28101807 325.74890137 228.48101807 C355.11890137 228.48101807 384.48890137 228.48101807 414.74890137 228.48101807 C414.86981047 276.59836281 414.86981047 276.59836281 414.89538574 296.74468994 C414.91319428 310.66130892 414.93414241 324.57787345 414.97521973 338.4944458 C415.00512038 348.62931037 415.02447599 358.76413081 415.03116685 368.89903826 C415.03507796 374.26544592 415.04427085 379.63172735 415.06609154 384.99809456 C415.08646711 390.05003859 415.09273295 395.10180449 415.08822441 400.15378571 C415.08904913 402.00690873 415.09500836 403.86003776 415.10651779 405.71312523 C415.12147871 408.24637136 415.11784196 410.77894794 415.10966492 413.31221008 C415.11840344 414.04277321 415.12714197 414.77333634 415.13614529 415.52603775 C415.06840305 423.30869475 412.26433262 428.96558682 406.74890137 434.48101807 C400.74553633 437.86556719 396.22548051 437.63914835 389.49420166 436.89056396 C387.37059136 436.68822882 385.24697682 436.48593809 383.12335873 436.28368473 C381.99131791 436.16907622 380.85927709 436.05446772 379.69293201 435.93638623 C373.44567812 435.31178384 367.19152116 434.7665821 360.93696594 434.2207489 C359.93860496 434.13317704 359.93860496 434.13317704 358.92007507 434.04383605 C329.83344136 431.50315298 300.67156804 430.08355989 271.49890137 428.98101807 C270.71787263 428.95086017 269.93684389 428.92070227 269.13214761 428.8896305 C193.58448547 425.98382974 125.55910031 424.60856187 66.7655791 478.56164539 C55.54055984 489.09303548 45.24164351 500.40301812 35.18640137 512.04351807 C34.42518164 512.92135326 33.66396191 513.79918846 32.87967491 514.70362473 C13.99708219 536.53718177 -3.50351597 559.2264469 -19.59766483 583.1880579 C-20.14329799 583.94473475 -20.68893114 584.70141161 -21.25109863 585.48101807 C-21.58109863 585.48101807 -21.91109863 585.48101807 -22.25109863 585.48101807 C-22.3538013 531.07535922 -22.44932598 476.66969119 -22.50515747 422.26396179 C-22.50598581 421.45883443 -22.50681416 420.65370707 -22.5076676 419.82418191 C-22.52562474 402.32690495 -22.54224587 384.82962696 -22.55749061 367.33234743 C-22.56497468 358.75177713 -22.57275399 350.1712071 -22.58068848 341.59063721 C-22.58147303 340.73676402 -22.58225759 339.88289083 -22.58306591 339.00314269 C-22.60863736 311.3229764 -22.65370769 283.64288356 -22.70888196 255.96276176 C-22.76547428 227.51958059 -22.80241054 199.07644008 -22.81458857 170.63320355 C-22.81631752 166.61647599 -22.81827134 162.59974856 -22.82036209 158.58302116 C-22.82076663 157.7924659 -22.82117117 157.00191063 -22.82158796 156.18739914 C-22.82868031 143.45784238 -22.85651407 130.72841128 -22.89209084 117.99890578 C-22.92740903 105.20371461 -22.94090787 92.4086481 -22.9321069 79.61340988 C-22.92794304 72.67967282 -22.93345543 65.7462726 -22.96633148 58.812603 C-22.99547929 52.46683529 -22.99703668 46.12168561 -22.976492 39.77588975 C-22.97395197 37.4782896 -22.98160622 35.18065126 -23.00039773 32.88312656 C-23.02444557 29.76185537 -23.01152244 26.64282083 -22.9893856 23.52158451 C-23.00514769 22.62754204 -23.02090977 21.73349957 -23.03714949 20.81236491 C-22.92920694 14.08672702 -20.73438652 9.50237595 -16.25109863 4.48101807 C-11.1094402 0.71734179 -6.25232353 -0.10065239 0 0 Z " fill="#FE6600" transform="translate(22.2510986328125,-0.48101806640625)"/>
<path d="M0 0 C47.3247184 -0.16121214 47.3247184 -0.16121214 67.1484375 -0.1953125 C80.83892812 -0.21905163 94.5293203 -0.2469667 108.21972656 -0.30175781 C118.19016198 -0.34164199 128.16051758 -0.36743675 138.13103056 -0.37635398 C143.40976563 -0.38156601 148.68827236 -0.39380516 153.9669342 -0.42292023 C158.93766244 -0.45011416 163.90806873 -0.45843689 168.87886429 -0.45243073 C170.70093664 -0.45352918 172.52302 -0.4614593 174.34502792 -0.4768219 C176.83868683 -0.49681244 179.33114055 -0.49190674 181.8248291 -0.48101807 C182.54080655 -0.49266943 183.25678399 -0.5043208 183.99445772 -0.51632524 C189.94239047 -0.44643391 195.09519253 1.39333558 199.53398371 5.37653899 C204.47379383 10.89631746 205.29952139 16.62882108 205.24050903 23.7828064 C205.24221788 24.54747368 205.24392673 25.31214097 205.24568737 26.09998 C205.248971 28.65187359 205.23799725 31.20350188 205.22705078 33.75537109 C205.22648642 35.58874505 205.22680371 37.42211947 205.22793579 39.25549316 C205.22850934 44.22609341 205.21675453 49.19659702 205.20278788 54.16717482 C205.19028102 59.3641813 205.18911005 64.56119002 205.18673706 69.75820923 C205.18052217 79.59658648 205.1641112 89.43491925 205.14403808 99.27327693 C205.11749826 112.56991059 205.10670651 125.86655644 205.09503365 139.16320992 C205.07623064 160.10883992 205.03638499 181.05437607 205 202 C175.63 202 146.26 202 116 202 C116 164.71 116 127.42 116 89 C77.72 89 39.44 89 0 89 C0 59.63 0 30.26 0 0 Z " fill="#FEFEFE" transform="translate(232,0)"/>
<path d="M0 0 C18.02625 -0.061875 36.0525 -0.12375 54.625 -0.1875 C60.31314941 -0.21481201 66.00129883 -0.24212402 71.86181641 -0.27026367 C78.81713867 -0.28381348 78.81713867 -0.28381348 82.07504272 -0.28633118 C84.34646366 -0.29093262 86.61787734 -0.3014729 88.88925171 -0.31672668 C92.33336078 -0.33869644 95.77702272 -0.34171765 99.22119141 -0.34057617 C100.23012262 -0.3513705 101.23905384 -0.36216482 102.27855873 -0.37328625 C108.50175162 -0.34568914 113.02430993 0.31679229 117.828125 4.6484375 C118.29734375 5.21820313 118.7665625 5.78796875 119.25 6.375 C119.72953125 6.93960938 120.2090625 7.50421875 120.703125 8.0859375 C124.49410821 13.68106332 124.27439784 18.94309354 124.22705078 25.48168945 C124.22729185 26.55280818 124.22753292 27.62392691 124.2277813 28.72750378 C124.22629031 32.18951453 124.21106716 35.65130909 124.1953125 39.11328125 C124.1923714 41.25272518 124.19033137 43.39217055 124.18920898 45.53161621 C124.17872936 53.45859944 124.15080692 61.38555185 124.125 69.3125 C124.08375 87.029375 124.0425 104.74625 124 123 C83.08 123 42.16 123 0 123 C0 82.41 0 41.82 0 0 Z " fill="#FE6600" transform="translate(156,157)"/>
</svg>
