<?xml version="1.0" encoding="UTF-8"?>
<svg version="1.1" xmlns="http://www.w3.org/2000/svg" width="1686" height="585">
<path d="M0 0 C1.17022061 -0.00256327 1.17022061 -0.00256327 2.36408204 -0.00517833 C4.97435719 -0.00846872 7.58437444 0.00252299 10.19462585 0.01345825 C12.06726068 0.01402246 13.93989595 0.01370561 15.81253052 0.01257324 C20.89475572 0.01199912 25.97688662 0.02376316 31.0590899 0.03772116 C36.37088052 0.05021851 41.68267327 0.05139823 46.99447632 0.05377197 C57.05246538 0.05998966 67.11041099 0.07640441 77.16838092 0.09647095 C90.76018544 0.12299953 104.35200184 0.13380026 117.94382572 0.14547539 C139.35778058 0.16428478 160.77164375 0.20412856 182.18559265 0.24050903 C182.18559265 29.61050903 182.18559265 58.98050903 182.18559265 89.24050903 C143.57559265 89.24050903 104.96559265 89.24050903 65.18559265 89.24050903 C65.18559265 174.71050903 65.18559265 260.18050903 65.18559265 348.24050903 C150.98559265 348.24050903 236.78559265 348.24050903 325.18559265 348.24050903 C325.18559265 308.97050903 325.18559265 269.70050903 325.18559265 229.24050903 C354.55559265 229.24050903 383.92559265 229.24050903 414.18559265 229.24050903 C414.30650175 277.06677631 414.30650175 277.06677631 414.33207703 297.09988403 C414.34988166 310.9352044 414.37081885 324.77046999 414.41191101 338.60574341 C414.4418232 348.68165392 414.46117001 358.75752 414.46785814 368.83347368 C414.47176729 374.16805553 414.48094775 379.50251029 414.50278282 384.83705139 C414.52317663 389.86027165 414.52942056 394.88331271 414.5249157 399.90657043 C414.5257396 401.74798558 414.53168795 403.58940685 414.54320908 405.43078613 C414.55819859 407.95054577 414.55452293 410.46963429 414.5463562 412.9894104 C414.55509473 413.71316974 414.56383325 414.43692908 414.57283658 415.18262053 C414.5201102 421.22698706 413.19576525 426.6300134 409.45903015 431.48269653 C408.83254578 432.02152466 408.2060614 432.56035278 407.56059265 433.11550903 C406.94957703 433.66980591 406.3385614 434.22410278 405.70903015 434.79519653 C398.80127825 438.75164886 391.5022873 438.37843663 383.83551025 437.53652954 C381.74168773 437.33396865 379.64783032 437.13176814 377.55394363 436.92987156 C376.44293557 436.81775967 375.3319275 436.70564778 374.18725252 436.59013855 C368.03943414 435.97797775 361.88579939 435.43298693 355.73132324 434.89247131 C355.07693381 434.83497314 354.42254439 434.77747496 353.74832498 434.71823441 C325.91142682 432.28719262 298.00374923 430.87608674 270.08368325 429.82818156 C268.52878862 429.76981451 266.97392001 429.71075011 265.41907859 429.65098256 C190.80091828 426.79047144 123.86326784 425.71101669 65.79965633 479.05224502 C54.65707913 489.51565589 44.42411202 500.74536133 34.43559265 512.30300903 C33.67953185 513.17482944 32.92347104 514.04664986 32.1444993 514.94488907 C15.24736672 534.48472204 -0.72489161 554.65093774 -15.30141354 575.98613739 C-15.9514226 576.93345786 -15.9514226 576.93345786 -16.61456317 577.89991611 C-17.76467755 579.58255599 -18.90395721 581.27258742 -20.04236984 582.96316624 C-20.62714222 583.71468936 -21.2119146 584.46621248 -21.81440735 585.24050903 C-22.47440735 585.24050903 -23.13440735 585.24050903 -23.81440735 585.24050903 C-23.86575892 531.31151485 -23.91352124 477.38251844 -23.94143677 423.45350647 C-23.94185094 422.6554278 -23.94226511 421.85734912 -23.94269183 421.03508625 C-23.95167041 403.69097438 -23.95998098 386.34686226 -23.96760334 369.00274974 C-23.97134537 360.49728599 -23.97523503 351.9918223 -23.97920227 343.48635864 C-23.97959455 342.63995967 -23.97998682 341.79356069 -23.98039099 340.92151326 C-23.9931766 313.48388542 -24.0157117 286.04627609 -24.04329901 258.60865947 C-24.07159546 230.41456589 -24.09006337 202.22048256 -24.09615232 174.02637502 C-24.09701679 170.04478402 -24.0979937 166.06319305 -24.09903908 162.0816021 C-24.09924135 161.29796258 -24.09944362 160.51432307 -24.09965201 159.7069369 C-24.10319811 147.08900421 -24.11711485 134.47110322 -24.13490345 121.85318346 C-24.15256292 109.17003239 -24.15931185 96.48691275 -24.15491148 83.80374981 C-24.15282964 76.93087151 -24.15558519 70.05807818 -24.17202377 63.1852169 C-24.18659812 56.89510891 -24.18737559 50.6051568 -24.17710403 44.31504171 C-24.1758341 42.03763915 -24.17966036 39.76022694 -24.1890569 37.48284341 C-24.20108006 34.3893675 -24.19461648 31.29645575 -24.18355083 28.20298862 C-24.19143188 27.31696788 -24.19931292 26.43094714 -24.20743278 25.51807728 C-24.15330758 18.83079738 -23.2192259 12.25407873 -18.94721985 6.90066528 C-18.28464172 6.37343872 -17.6220636 5.84621216 -16.93940735 5.30300903 C-16.28198547 4.7577356 -15.6245636 4.21246216 -14.94721985 3.65066528 C-10.07864366 0.43169825 -5.73145753 -0.04607274 0 0 Z " fill="#FE6600" transform="translate(23.814407348632813,-0.240509033203125)"/>
<path d="M0 0 C46.9933379 -0.20151517 46.9933379 -0.20151517 66.6953125 -0.24414062 C80.29566888 -0.27380154 93.8958703 -0.30865877 107.49609375 -0.37719727 C117.40135921 -0.42709111 127.30649889 -0.45930504 137.21188653 -0.47044247 C142.45497279 -0.47695105 147.69769926 -0.49220811 152.94067001 -0.52865028 C157.88026354 -0.56270412 162.8193506 -0.57303398 167.75905037 -0.56553841 C169.56739241 -0.56690876 171.3757522 -0.57678513 173.18399239 -0.59602737 C191.77555448 -0.78408704 191.77555448 -0.78408704 199 5 C204.11989789 11.20352058 205.15282297 16.58624534 205.12025452 24.5043335 C205.12153615 25.64264583 205.12153615 25.64264583 205.12284368 26.80395436 C205.1244915 29.34816803 205.11898851 31.89231584 205.11352539 34.43652344 C205.11324334 36.25975035 205.1134016 38.08297738 205.1139679 39.90620422 C205.11425518 44.85829869 205.10836951 49.810369 205.10139394 54.76245785 C205.095149 59.93679113 205.0945557 65.11112495 205.09336853 70.28546143 C205.09025859 80.08493171 205.08204972 89.88439087 205.07201904 99.68385625 C205.05875917 112.92508192 205.05335528 126.16631064 205.04751682 139.40754128 C205.03810962 160.27170253 205.01818844 181.13584028 205 202 C175.63 202 146.26 202 116 202 C116 164.71 116 127.42 116 89 C77.72 89 39.44 89 0 89 C0 59.63 0 30.26 0 0 Z " fill="#0A2363" transform="translate(233,0)"/>
<path d="M0 0 C17.82 -0.0825 35.64 -0.165 54 -0.25 C59.61773437 -0.28641602 65.23546875 -0.32283203 71.0234375 -0.36035156 C77.90625 -0.37841797 77.90625 -0.37841797 81.1328125 -0.3817749 C83.37665991 -0.38789986 85.6204945 -0.40193223 87.86425781 -0.42230225 C91.2717155 -0.45167892 94.67837171 -0.45562083 98.0859375 -0.45410156 C99.57448746 -0.47569021 99.57448746 -0.47569021 101.09310913 -0.497715 C108.22751763 -0.45527414 113.8379016 0.9279044 119.05859375 6 C119.51363281 6.66 119.96867187 7.32 120.4375 8 C120.91058594 8.66 121.38367188 9.32 121.87109375 10 C123.82103699 13.45457071 124.12481489 16.65919133 124.12025452 20.58111572 C124.12232076 21.94961859 124.12232076 21.94961859 124.12442875 23.34576797 C124.11903159 24.84185404 124.11903159 24.84185404 124.11352539 26.36816406 C124.11364593 27.43916225 124.11376646 28.51016045 124.11389065 29.61361313 C124.11314417 33.08097153 124.1055279 36.54827621 124.09765625 40.015625 C124.09618601 42.15608698 124.09516581 44.29654931 124.09460449 46.43701172 C124.08936108 54.37467996 124.0753999 62.31234051 124.0625 70.25 C124.041875 87.9875 124.02125 105.725 124 124 C83.08 124 42.16 124 0 124 C0 83.08 0 42.16 0 0 Z " fill="#FF6600" transform="translate(157,157)"/>
<path d="M0 0 C2.58226212 2.48954176 4.97954921 5.02953593 7 8 C7 8.66 7 9.32 7 10 C7.9590625 9.01 7.9590625 9.01 8.9375 8 C19.59812122 -2.57027697 28.51150365 -8.74621728 43.875 -9.3125 C53.72386426 -9.05006945 63.33672511 -6.33669117 71 0 C82.47234308 12.43000034 82.42944255 25.01468252 82.29296875 41.0078125 C82.2873652 42.94407826 82.28309869 44.88034831 82.28010559 46.81661987 C82.2687166 51.88338206 82.23930127 56.94988135 82.20599365 62.01654053 C82.17516385 67.19849086 82.16157279 72.38048416 82.14648438 77.5625 C82.11442526 87.70846671 82.06170659 97.85417024 82 108 C71.44 108 60.88 108 50 108 C49.95101563 103.12347656 49.90203125 98.24695313 49.8515625 93.22265625 C49.81614499 90.11912084 49.78016725 87.01561191 49.7421875 83.91210938 C49.68205918 78.99442489 49.62391976 74.07677713 49.578125 69.15893555 C49.54104199 65.19064716 49.49462221 61.22256447 49.44193649 57.25445366 C49.42351403 55.74636916 49.40836208 54.23824078 49.39665604 52.73008919 C49.55081479 37.42320477 49.55081479 37.42320477 43 24 C38.70245421 20.23278964 34.58406351 19.87404368 29 20 C24.32014088 20.83539946 21.59140971 22.42173273 18.1875 25.75 C13.39766468 32.86632676 11.90588965 39.28179938 11.79467773 47.71801758 C11.78477814 48.37223694 11.77487854 49.0264563 11.76467896 49.70050049 C11.73326086 51.84847478 11.70838508 53.99647113 11.68359375 56.14453125 C11.66300718 57.63954725 11.64201027 59.13455765 11.62062073 60.62956238 C11.56557585 64.55365448 11.51608947 68.47779758 11.46777344 72.40197754 C11.40856936 77.11610204 11.34243866 81.83013388 11.27747345 86.54418182 C11.17968533 93.69606435 11.09067808 100.84800787 11 108 C0.11 108 -10.78 108 -22 108 C-22.03738281 102.90691406 -22.07476563 97.81382812 -22.11328125 92.56640625 C-22.14358267 89.32613903 -22.17474465 86.08592529 -22.20898438 82.84570312 C-22.26316493 77.71072187 -22.31428012 72.57584641 -22.34643555 67.44067383 C-22.37258113 63.29725526 -22.41306164 59.15419507 -22.46318626 55.01099968 C-22.4797793 53.4359377 -22.49134042 51.86081384 -22.49761391 50.28567696 C-22.34730658 36.32404134 -22.34730658 36.32404134 -28.375 24.0625 C-33.15399401 20.30757614 -36.92385911 19.39238591 -43 20 C-48.96739226 21.4580016 -52.26646418 23.74259644 -55.5 29 C-58.49394345 34.45563028 -59.12699658 38.65858556 -59.20532227 44.87988281 C-59.21522186 45.56321686 -59.22512146 46.2465509 -59.23532104 46.95059204 C-59.26682044 49.20140154 -59.29164752 51.45223211 -59.31640625 53.703125 C-59.33698577 55.26683083 -59.35798251 56.83053122 -59.37937927 58.39422607 C-59.43449686 62.50410551 -59.48395148 66.61403428 -59.53222656 70.72399902 C-59.59136354 75.65835959 -59.65753462 80.59263024 -59.72252655 85.5269165 C-59.82040628 93.01788928 -59.90935099 100.50892051 -60 108 C-70.89 108 -81.78 108 -93 108 C-93 70.71 -93 33.42 -93 -5 C-82.11 -5 -71.22 -5 -60 -5 C-59.505 -0.545 -59.505 -0.545 -59 4 C-58.05125 3.113125 -57.1025 2.22625 -56.125 1.3125 C-40.2065594 -12.2631056 -16.5998458 -12.82845226 0 0 Z " fill="#1E1F2D" transform="translate(1047,218)"/>
<path d="M0 0 C78.78021978 0 78.78021978 0 95 12 C95.86625 12.5775 96.7325 13.155 97.625 13.75 C108.70464651 24.24650722 113.85935523 38.52009808 114.28369141 53.45800781 C114.47499171 69.09275485 111.23805444 83.67112017 100.1875 95.4375 C81.34475704 112.58367415 58.56146404 110 34 110 C34 131.12 34 152.24 34 174 C22.78 174 11.56 174 0 174 C0 116.58 0 59.16 0 0 Z M34 30 C34 46.5 34 63 34 80 C53.7402248 81.48927258 53.7402248 81.48927258 70.3515625 73.94140625 C76.87197742 67.10994681 78.50535813 61.37567688 78.30859375 52.03515625 C77.66741973 45.72892571 75.38684024 40.95413231 70.75 36.625 C60.0325966 28.3579431 47.0679825 30 34 30 Z " fill="#1E1F2D" transform="translate(583,152)"/>
<path d="M0 0 C12.2995551 11.49064676 17.90327492 26.23106019 18.66796875 42.80249023 C19.07380067 58.84915676 13.92928747 72.7178915 3.69140625 85.0390625 C3.170625 85.68488281 2.64984375 86.33070313 2.11328125 86.99609375 C-8.057462 98.37397067 -24.38671778 103.82039939 -39.2265625 104.94921875 C-39.91363281 104.97886719 -40.60070312 105.00851562 -41.30859375 105.0390625 C-42.41654297 105.09900391 -42.41654297 105.09900391 -43.546875 105.16015625 C-62.39746049 105.68464063 -80.47862248 100.51697338 -94.43359375 87.5390625 C-106.64899278 74.76579485 -111.73591281 59.06536805 -111.515625 41.5625 C-110.55147101 25.15369056 -104.06636553 11.43797949 -92.30859375 0.0390625 C-91.74527344 -0.53328125 -91.18195312 -1.105625 -90.6015625 -1.6953125 C-67.08903272 -23.89205594 -23.34448557 -19.82898774 0 0 Z M-70.03125 23.92578125 C-76.77363088 32.35789887 -78.43607272 40.28265392 -77.30859375 51.0390625 C-75.41192201 59.41304716 -70.3908645 66.56223774 -63.29296875 71.41796875 C-61.32800262 72.46620855 -59.40453418 73.28962997 -57.30859375 74.0390625 C-56.68339844 74.27367187 -56.05820312 74.50828125 -55.4140625 74.75 C-47.28292113 77.30029689 -39.60649475 75.94106371 -31.99609375 72.4140625 C-23.65210084 67.88045704 -18.49889977 61.22326623 -15.72265625 52.1171875 C-14.03294651 43.6367575 -15.31639635 35.66258071 -19.30859375 28.0390625 C-24.37759047 20.51732543 -30.98996083 15.53709705 -39.87890625 13.4296875 C-51.67142536 11.53378411 -61.98975796 15.11843282 -70.03125 23.92578125 Z " fill="#1E1F2D" transform="translate(912.30859375,224.9609375)"/>
<path d="M0 0 C11.00055111 10.1699386 15.92459304 23.47215131 18 38 C18 42.95 18 47.9 18 53 C-9.72 53 -37.44 53 -66 53 C-62.37073984 67.8809554 -62.37073984 67.8809554 -52 78 C-43.28752913 81.63141643 -35.50624548 82.0715596 -26.53515625 79.1875 C-20.91360214 76.55429129 -16.41551247 72.12326871 -13 67 C-3.2831476 68.08220868 6.37435149 69.25662628 16 71 C16.96714727 73.55187051 17.13918757 74.6550569 16.1015625 77.2265625 C7.34460965 91.45081924 -3.60342503 101.58468414 -20 106 C-37.91197708 109.79032163 -56.63462848 108.77276925 -72.75390625 99.3984375 C-85.61616486 90.79741571 -94.45663776 79.37665313 -98.33984375 64.23046875 C-101.72085283 45.78735999 -99.64318283 25.71840427 -89 10 C-80.11788025 -1.90663466 -67.72257922 -9.51721887 -53.125 -12.3125 C-34.31361173 -14.89108455 -15.06459691 -12.33325878 0 0 Z M-59 20 C-63.00725259 25.45155186 -63.00725259 25.45155186 -64 32 C-47.17 32 -30.34 32 -13 32 C-14.65995107 23.70024467 -18.1957428 18.79787367 -25 14 C-36.39400075 7.02408117 -50.64500325 10.06432819 -59 20 Z " fill="#1E1F2D" transform="translate(1452,222)"/>
<path d="M0 0 C1.3303125 0.86625 1.3303125 0.86625 2.6875 1.75 C11.64045109 10.46097944 14.73707027 21.60202894 15.12025452 33.84092712 C15.12311233 35.24282725 15.12058898 36.64474562 15.11352539 38.04663086 C15.11367142 38.81818512 15.11381744 39.58973938 15.1139679 40.38467407 C15.11327638 42.91142683 15.10551994 45.43810402 15.09765625 47.96484375 C15.09578936 49.72603821 15.09436674 51.48723318 15.09336853 53.24842834 C15.08956467 57.86631727 15.07975273 62.48417436 15.06866455 67.10205078 C15.05840446 71.82128468 15.05386108 76.54052377 15.04882812 81.25976562 C15.03812842 90.5065266 15.02054902 99.75325566 15 109 C4.11 109 -6.78 109 -18 109 C-18.02578125 104.00230469 -18.0515625 99.00460937 -18.078125 93.85546875 C-18.10332207 90.66987218 -18.12967679 87.48436788 -18.16015625 84.29882812 C-18.20831682 79.25398536 -18.25242641 74.20935645 -18.27099609 69.16430664 C-18.28625496 65.0921232 -18.32086114 61.0205032 -18.36830902 56.94857216 C-18.38302847 55.4030786 -18.39103554 53.85750456 -18.39188385 52.31194115 C-18.38488013 37.31490941 -18.38488013 37.31490941 -25.3125 24.4375 C-31.23623575 21.26899018 -37.3818938 19.84996577 -44.0078125 21.5 C-49.52074775 23.34463233 -54.25175338 25.92800115 -57.22265625 31.1484375 C-60.08957974 37.33441578 -61.11395832 42.80002844 -61.20532227 49.6262207 C-61.21522186 50.27068649 -61.22512146 50.91515228 -61.23532104 51.57914734 C-61.26673387 53.69465549 -61.29161279 55.81018605 -61.31640625 57.92578125 C-61.33699328 59.39837708 -61.3579902 60.87096724 -61.37937927 62.34355164 C-61.43441943 66.20845933 -61.48390786 70.07341874 -61.53222656 73.93841553 C-61.59143501 78.58162306 -61.65756307 83.22473662 -61.72252655 87.86786652 C-61.82030871 94.91185333 -61.90932002 101.95590205 -62 109 C-72.89 109 -83.78 109 -95 109 C-95 71.71 -95 34.42 -95 -4 C-84.11 -4 -73.22 -4 -62 -4 C-61.505 1.445 -61.505 1.445 -61 7 C-60.12601563 6.11248047 -60.12601563 6.11248047 -59.234375 5.20703125 C-42.95558474 -10.48306062 -19.00497089 -12.68331741 0 0 Z " fill="#1E1F2C" transform="translate(1588,217)"/>
<path d="M0 0 C7.34943385 6.66042442 11.41946085 14.22151553 13 24 C13.08783754 26.76850412 13.12649135 29.51071315 13.11352539 32.27856445 C13.11367142 33.09859451 13.11381744 33.91862457 13.1139679 34.76350403 C13.1132734 37.46345704 13.1055027 40.16334035 13.09765625 42.86328125 C13.09579043 44.73943545 13.0943673 46.61559013 13.09336853 48.491745 C13.0895563 53.422021 13.07973707 58.3522674 13.06866455 63.28253174 C13.05842259 68.31660563 13.05386494 73.35068431 13.04882812 78.38476562 C13.03811363 88.2565255 13.02052732 98.12825565 13 108 C2.44 108 -8.12 108 -19 108 C-19.04898437 103.19566406 -19.09796875 98.39132812 -19.1484375 93.44140625 C-19.18385586 90.38344349 -19.21983407 87.32550755 -19.2578125 84.26757812 C-19.3179361 79.42232261 -19.37607434 74.57710429 -19.421875 69.73168945 C-19.45896355 65.82175398 -19.50538467 61.91202705 -19.55806351 58.00227165 C-19.57648308 56.51651637 -19.59163605 55.0307166 -19.60334396 53.54489326 C-19.42525733 38.30283316 -19.42525733 38.30283316 -26 25 C-31.76023606 20.55981804 -35.78228556 19.52670725 -43 20 C-48.95553987 21.29734745 -53.16580731 23.07032368 -57 28 C-60.70421664 34.30344663 -62.11018713 39.35729306 -62.20532227 46.69628906 C-62.21522186 47.36011597 -62.22512146 48.02394287 -62.23532104 48.70788574 C-62.2668126 50.89376302 -62.29164437 53.079662 -62.31640625 55.265625 C-62.33698645 56.78449049 -62.35798321 58.30335038 -62.37937927 59.82220459 C-62.43448984 63.81371525 -62.48394753 67.80527665 -62.53222656 71.796875 C-62.59137 76.58940158 -62.6575372 81.38183571 -62.72252655 86.17428589 C-62.82039745 93.44946731 -62.90934818 100.7247089 -63 108 C-73.89 108 -84.78 108 -96 108 C-96 70.71 -96 33.42 -96 -5 C-85.11 -5 -74.22 -5 -63 -5 C-62.505 0.445 -62.505 0.445 -62 6 C-61.071875 4.96875 -60.14375 3.9375 -59.1875 2.875 C-43.81399503 -12.40552006 -16.96635606 -13.49060951 0 0 Z " fill="#1E1F2D" transform="translate(1316,218)"/>
<path d="M0 0 C10.56 0 21.12 0 32 0 C32 12.54 32 25.08 32 38 C39.26 38 46.52 38 54 38 C54 47.24 54 56.48 54 66 C46.74 66 39.48 66 32 66 C32 94.05 32 122.1 32 151 C21.44 151 10.88 151 0 151 C0 122.95 0 94.9 0 66 C-4.29 66 -8.58 66 -13 66 C-13 56.76 -13 47.52 -13 38 C-8.71 38 -4.42 38 0 38 C0 25.46 0 12.92 0 0 Z " fill="#1E1F2D" transform="translate(1632,175)"/>
<path d="M0 0 C1.04000474 4.00774412 0.88468839 7.10328052 0.22265625 11.17578125 C0.03896484 12.33271484 -0.14472656 13.48964844 -0.33398438 14.68164062 C-0.63272461 16.47891602 -0.63272461 16.47891602 -0.9375 18.3125 C-1.13279297 19.53001953 -1.32808594 20.74753906 -1.52929688 22.00195312 C-2.01176189 25.00265019 -2.50225726 28.00180582 -3 31 C-5.45235509 30.40951971 -7.78820329 29.73726557 -10.1875 28.9375 C-18.74522721 26.83314085 -26.1657491 27.81068759 -34 32 C-40.12932 36.83659069 -42.41562447 42.51383861 -44 50 C-44.44778828 55.06234282 -44.48915148 60.11663932 -44.51171875 65.1953125 C-44.528599 66.63835137 -44.54675364 68.08137585 -44.56611633 69.52438354 C-44.61326008 73.2889353 -44.64329814 77.05342865 -44.66955566 80.81817627 C-44.70483213 85.35312197 -44.76174155 89.88784347 -44.81494904 94.42260742 C-44.89304442 101.28170819 -44.94396484 108.14052401 -45 115 C-55.89 115 -66.78 115 -78 115 C-78 77.71 -78 40.42 -78 2 C-67.11 2 -56.22 2 -45 2 C-44.505 7.94 -44.505 7.94 -44 14 C-42.9275 12.63875 -41.855 11.2775 -40.75 9.875 C-29.91617922 -2.34678358 -14.99630563 -3.97065303 0 0 Z " fill="#1E1F2D" transform="translate(794,211)"/>
<path d="M0 0 C10.89 0 21.78 0 33 0 C33 37.29 33 74.58 33 113 C22.11 113 11.22 113 0 113 C0 75.71 0 38.42 0 0 Z " fill="#1E1F2C" transform="translate(1158,213)"/>
<path d="M0 0 C3.63 0 7.26 0 11 0 C11.33 10.89 11.66 21.78 12 33 C13.65 32.01 15.3 31.02 17 30 C23.27807987 29.03880432 29.67582083 29.28286328 35.24609375 32.52734375 C40.37907967 36.8372228 43.60638109 42.6172048 44.203125 49.26171875 C44.35931138 57.344364 43.33881958 63.91247021 37.625 69.9375 C32.54701076 74.84158549 27.48187656 75.370761 20.671875 75.26953125 C17.29199571 74.92857851 14.83743411 73.8404978 12 72 C11.505 72.99 11.505 72.99 11 74 C7.37 74 3.74 74 0 74 C0 49.58 0 25.16 0 0 Z M12.125 43.625 C10.02808303 48.05182471 9.25506188 52.54337824 10.6953125 57.29296875 C12.52120973 61.23949466 13.82300013 63.4006283 18 65 C23.93579326 65.71753168 23.93579326 65.71753168 28.875 62.75 C32.58543374 57.94826222 33.53531693 55.20967636 33 49 C31.41373827 44.87571951 29.89770003 42.17812649 26 40 C20.72671535 38.00470311 16.25560597 40.04514149 12.125 43.625 Z " fill="#1E1F2D" transform="translate(1571,364)"/>
<path d="M0 0 C3.3 0 6.6 0 10 0 C10 10.89 10 21.78 10 33 C11.65 32.01 13.3 31.02 15 30 C17.9375 29.6015625 17.9375 29.6015625 21 29.625 C22.010625 29.61726563 23.02125 29.60953125 24.0625 29.6015625 C28.6097444 30.21834299 31.1807518 32.11248111 34.25 35.4375 C37.35066859 39.97776472 37.11923523 43.95272181 37.09765625 49.390625 C37.0962413 50.09523865 37.09482635 50.79985229 37.09336853 51.52581787 C37.08778933 53.76725584 37.07524073 56.00859243 37.0625 58.25 C37.05748231 59.77343605 37.05291987 61.29687368 37.04882812 62.8203125 C37.03782674 66.54690772 37.02057646 70.27344396 37 74 C33.37 74 29.74 74 26 74 C25.98018066 73.10692139 25.96036133 72.21384277 25.93994141 71.29370117 C25.86181302 67.97799292 25.77512029 64.66273838 25.68261719 61.34741211 C25.64435134 59.91292932 25.60949419 58.47835135 25.578125 57.04370117 C25.53242138 54.98061122 25.47443807 52.91817505 25.4140625 50.85546875 C25.3826416 49.61434326 25.3512207 48.37321777 25.31884766 47.09448242 C25.22600791 43.83363899 25.22600791 43.83363899 23 41 C19.99405881 40.66600653 17.8974987 40.46562524 15 41 C11.41382616 44.12344174 11.1325977 48.21064054 10.79467773 52.77075195 C10.73969116 54.23967896 10.73969116 54.23967896 10.68359375 55.73828125 C10.64169922 56.80498047 10.59980469 57.87167969 10.55664062 58.97070312 C10.51732422 60.07349609 10.47800781 61.17628906 10.4375 62.3125 C10.39431641 63.43462891 10.35113281 64.55675781 10.30664062 65.71289062 C10.20085213 68.47514569 10.09876328 71.2374863 10 74 C6.7 74 3.4 74 0 74 C0 49.58 0 25.16 0 0 Z " fill="#1E1F2D" transform="translate(1268,364)"/>
<path d="M0 0 C1.6328125 0.82421875 1.6328125 0.82421875 3.8828125 2.32421875 C4.2128125 1.66421875 4.5428125 1.00421875 4.8828125 0.32421875 C8.1828125 0.32421875 11.4828125 0.32421875 14.8828125 0.32421875 C14.8828125 14.51421875 14.8828125 28.70421875 14.8828125 43.32421875 C11.5828125 43.32421875 8.2828125 43.32421875 4.8828125 43.32421875 C4.5528125 42.66421875 4.2228125 42.00421875 3.8828125 41.32421875 C3.1196875 41.81921875 2.3565625 42.31421875 1.5703125 42.82421875 C-4.02056318 45.09847326 -9.60291914 45.3749375 -15.4296875 43.6328125 C-21.10742566 41.06277572 -24.87430293 37.42267746 -27.2265625 31.55859375 C-29.11840694 24.68821131 -29.50824474 16.35934395 -26.4921875 9.76171875 C-20.80384992 0.34167035 -10.53183049 -3.36163593 0 0 Z M-16.1171875 14.32421875 C-17.47223269 18.38935432 -17.65394608 22.07367107 -17.1171875 26.32421875 C-15.1121787 30.12682165 -13.69032488 31.94212716 -10.1171875 34.32421875 C-5.00019585 34.96589659 -5.00019585 34.96589659 -0.296875 33.30859375 C2.38570826 31.1573434 3.78792919 29.60886867 4.8828125 26.32421875 C5.2989889 22.05040729 5.35927972 18.42009336 3.6328125 14.44921875 C0.50224278 10.64781266 -0.95354484 9.47436619 -5.9921875 8.82421875 C-10.77495702 8.99407412 -12.87449385 10.92334492 -16.1171875 14.32421875 Z " fill="#1E1F2D" transform="translate(1532.1171875,394.67578125)"/>
<path d="M0 0 C5.79193402 4.27499892 9.35519069 8.69958694 10.625 15.9375 C10.625 18.5775 10.625 21.2175 10.625 23.9375 C0.725 23.9375 -9.175 23.9375 -19.375 23.9375 C-16.54166667 31.60416667 -16.54166667 31.60416667 -13.375 32.9375 C-10.31759197 33.35796869 -7.42430701 33.44129855 -4.375 32.9375 C-1.6454415 30.45843031 -1.6454415 30.45843031 0.625 27.9375 C4.60188596 27.9375 7.35852919 29.79096204 10.625 31.9375 C8.59064948 36.93090583 5.18439524 39.99536538 0.625 42.75 C-5.72047033 45.19056551 -13.41600193 44.8520994 -19.8125 42.875 C-24.77320389 39.12422389 -28.47180905 34.92516467 -30.375 28.9375 C-31.40421897 20.06454906 -30.8992882 12.21137574 -25.375 4.9375 C-18.31367244 -1.73754049 -9.13352424 -2.87536874 0 0 Z M-18.375 12.9375 C-18.375 13.5975 -18.375 14.2575 -18.375 14.9375 C-12.435 14.9375 -6.495 14.9375 -0.375 14.9375 C-3.02500813 9.96521298 -3.02500813 9.96521298 -7.375 7.9375 C-12.57790114 6.97907084 -14.82519108 9.47024478 -18.375 12.9375 Z " fill="#1E1F2D" transform="translate(1181.375,395.0625)"/>
<path d="M0 0 C5.35224142 3.14481982 8.59463027 7.15498457 10.57421875 13.09375 C11.31618955 19.94177554 10.63337286 25.4188161 6.57421875 31.09375 C0.59284532 36.77605476 -4.19919611 37.55110499 -12.29296875 37.40625 C-17.93890646 36.84306419 -20.39761682 34.16864918 -24.17578125 30.21875 C-28.22606345 24.59335805 -28.84089575 20.23462782 -27.9609375 13.48828125 C-26.57747913 7.29806239 -22.2843963 3.71186759 -17.42578125 0.09375 C-11.91953052 -1.74166691 -5.48828945 -2.05037545 0 0 Z " fill="#1E1F2D" transform="translate(1183.42578125,147.90625)"/>
<path d="M0 0 C5.53089106 3.37998898 8.90804848 8.16164545 10.93359375 14.23828125 C12.536357 21.03449439 11.65619143 27.21127107 8.4375 33.375 C4.81616614 38.91351061 0.75035032 41.69473758 -5.5625 43.375 C-14.29933523 44.38615518 -20.800175 43.42172445 -27.8125 38 C-33.2975964 32.76422616 -34.69287201 28.02514761 -34.875 20.625 C-34.79411065 13.97589505 -33.50054563 9.49406266 -28.9140625 4.625 C-21.13373994 -2.4418432 -9.81420055 -4.49505369 0 0 Z M-19.5625 10.375 C-22.67311244 13.72489032 -23.82831613 16.38773493 -24.0625 20.875 C-23.86040029 25.31370838 -22.47423051 27.96411569 -19.5625 31.375 C-15.50883625 34.0774425 -12.31718449 33.90236817 -7.5625 33.375 C-4.0080085 31.98411202 -2.84998758 30.81118806 -0.75 27.625 C1.06716135 22.65171632 1.0905711 19.07298487 -0.8125 14.125 C-3.24631941 10.30042663 -5.05570427 8.84378089 -9.375 7.5 C-13.58531673 7.33488954 -15.91672028 8.28205238 -19.5625 10.375 Z " fill="#1E1F2D" transform="translate(1421.5625,395.625)"/>
<path d="M0 0 C13.86 0 27.72 0 42 0 C42 3.63 42 7.26 42 11 C36.72 11 31.44 11 26 11 C26 29.81 26 48.62 26 68 C22.37 68 18.74 68 15 68 C15 49.19 15 30.38 15 11 C10.05 11 5.1 11 0 11 C0 7.37 0 3.74 0 0 Z " fill="#1E1F2D" transform="translate(1097,370)"/>
<path d="M0 0 C1.03769531 -0.02578125 2.07539062 -0.0515625 3.14453125 -0.078125 C7.78709351 0.42248505 11.2167489 2.68509868 14.1875 6.25 C15.41930134 9.94540402 15.31162112 13.35303378 15.28515625 17.19921875 C15.2837413 17.97183548 15.28232635 18.74445221 15.28086853 19.54048157 C15.27527466 22.00619389 15.26272333 24.47181515 15.25 26.9375 C15.24498421 28.61002473 15.24042144 30.28255088 15.23632812 31.95507812 C15.22530724 36.05342046 15.20804684 40.15169479 15.1875 44.25 C11.8875 44.25 8.5875 44.25 5.1875 44.25 C5.16768066 43.46351074 5.14786133 42.67702148 5.12744141 41.86669922 C5.03188767 38.28580958 4.92233064 34.70547902 4.8125 31.125 C4.7815625 29.8875 4.750625 28.65 4.71875 27.375 C4.68007812 26.17617188 4.64140625 24.97734375 4.6015625 23.7421875 C4.55443115 22.09259033 4.55443115 22.09259033 4.50634766 20.40966797 C4.17313457 17.10764366 3.35103429 14.34867553 2.1875 11.25 C-0.70898559 10.42243269 -2.54100644 10.18686196 -5.5 10.875 C-8.50677094 12.66280975 -8.77654153 13.94268105 -9.8125 17.25 C-10.17495813 20.34114162 -10.17495813 20.34114162 -10.2265625 23.64453125 C-10.28457031 25.44760742 -10.28457031 25.44760742 -10.34375 27.28710938 C-10.3746875 28.53298828 -10.405625 29.77886719 -10.4375 31.0625 C-10.49550781 32.96032227 -10.49550781 32.96032227 -10.5546875 34.89648438 C-10.64880657 38.01417851 -10.73444361 41.13186914 -10.8125 44.25 C-14.4425 44.25 -18.0725 44.25 -21.8125 44.25 C-21.8125 30.06 -21.8125 15.87 -21.8125 1.25 C-17.14583333 1.25 -12.47916667 1.25 -7.8125 1.25 C-5.13594199 -0.08827901 -2.98815948 0.04421444 0 0 Z " fill="#1E1F2C" transform="translate(1349.8125,393.75)"/>
<path d="M0 0 C3.63 0 7.26 0 11 0 C11 18.81 11 37.62 11 57 C17.6 57 24.2 57 31 57 C31 60.63 31 64.26 31 68 C20.77 68 10.54 68 0 68 C0 45.56 0 23.12 0 0 Z " fill="#1E1F2D" transform="translate(1456,370)"/>
<path d="M0 0 C1.2890625 -0.00515625 2.578125 -0.0103125 3.90625 -0.015625 C7.5 0.25 7.5 0.25 12.5 2.25 C12.5 6.54 12.5 10.83 12.5 15.25 C11.46875 14.610625 10.4375 13.97125 9.375 13.3125 C4.2711921 10.45436757 0.46073276 9.78126522 -5.25 11.25 C-8.80714651 12.57345013 -9.31722662 12.89148299 -11.125 16.4375 C-11.67549591 22.03420838 -11.77908619 26.31074029 -8.5625 31.1875 C-5.75778302 33.99221698 -4.11552972 34.43759343 -0.25 34.5625 C4.3775405 34.54014473 6.83179673 33.11298792 10.5 30.25 C11.16 30.25 11.82 30.25 12.5 30.25 C12.5 34.21 12.5 38.17 12.5 42.25 C5.49118073 46.26569128 -2.16190904 46.66450991 -9.9765625 44.59375 C-16.16885813 41.82036663 -20.34015967 37.09688082 -22.875 30.875 C-24.31432007 22.52694358 -23.84503281 15.73311207 -19.5 8.25 C-13.96915756 1.89346307 -8.36974932 -0.033479 0 0 Z " fill="#1E1F2D" transform="translate(1234.5,393.75)"/>
<path d="M0 0 C2.82348339 1.62149964 4.90439839 3.52069669 7 6 C5.31934199 9.76591888 3.72407321 11.1379634 0 13 C-0.66 13 -1.32 13 -2 13 C-2.33 12.34 -2.66 11.68 -3 11 C-5.52733235 10.34444881 -5.52733235 10.34444881 -8 10 C-8 11.32 -8 12.64 -8 14 C-6.64455078 14.68835938 -6.64455078 14.68835938 -5.26171875 15.390625 C-4.0700523 16.00991623 -2.87866034 16.62973585 -1.6875 17.25 C-0.51574219 17.85328125 0.65601563 18.4565625 1.86328125 19.078125 C4.84085246 20.90248993 6.38894154 21.94806531 8 25 C8.87141484 30.1970867 8.59466314 34.71918709 6.375 39.5 C2.10420296 43.99557583 -1.4622081 45.17821639 -7.5625 45.375 C-11.85583837 45.24119677 -14.67440464 44.9224929 -18 42 C-20.42429413 39.30633985 -21.8514954 37.44551381 -23 34 C-16.375 30 -16.375 30 -13 30 C-12.7525 30.639375 -12.505 31.27875 -12.25 31.9375 C-11.18919038 34.14401083 -11.18919038 34.14401083 -9.0625 34.8125 C-6.80257287 35.15686809 -6.80257287 35.15686809 -4 34 C-4 32.35 -4 30.7 -4 29 C-4.98742188 28.45730469 -5.97484375 27.91460937 -6.9921875 27.35546875 C-8.28666715 26.63318662 -9.58092658 25.91050971 -10.875 25.1875 C-11.52597656 24.83107422 -12.17695312 24.47464844 -12.84765625 24.10742188 C-16.06597903 22.29918897 -17.9196783 21.12048255 -20 18 C-20.73981114 13.00197359 -20.51803233 9.03606467 -18.25 4.5 C-13.27759122 -1.02489864 -7.07955824 -1.10762319 0 0 Z " fill="#1E1F2D" transform="translate(1656,394)"/>
</svg>
