<?xml version="1.0" encoding="UTF-8"?>
<svg version="1.1" xmlns="http://www.w3.org/2000/svg" width="1686" height="585">
<path d="M0 0 C1.1837529 -0.00384491 1.1837529 -0.00384491 2.39142001 -0.0077675 C5.02634447 -0.01269488 7.66069139 0.00377001 10.29556274 0.02018738 C12.18804918 0.02103388 14.0805366 0.02055806 15.97302246 0.01885986 C21.10482137 0.01799938 26.23640977 0.03563388 31.36815977 0.05658174 C36.73332368 0.07533958 42.09849244 0.07709828 47.46368408 0.08065796 C57.62083021 0.08998103 67.77787943 0.11459842 77.9349829 0.14470643 C91.6621088 0.18451327 105.38926121 0.20070319 119.11643028 0.21821308 C140.74082957 0.24641927 162.36502436 0.30618714 183.9894104 0.36076355 C183.9894104 29.73076355 183.9894104 59.10076355 183.9894104 89.36076355 C145.3794104 89.36076355 106.7694104 89.36076355 66.9894104 89.36076355 C66.9894104 174.83076355 66.9894104 260.30076355 66.9894104 348.36076355 C152.7894104 348.36076355 238.5894104 348.36076355 326.9894104 348.36076355 C326.9894104 308.76076355 326.9894104 269.16076355 326.9894104 228.36076355 C356.3594104 228.36076355 385.7294104 228.36076355 415.9894104 228.36076355 C416.1103195 276.18703082 416.1103195 276.18703082 416.13589478 296.22013855 C416.1536994 310.05545892 416.1746366 323.8907245 416.21572876 337.72599792 C416.24564095 347.80190844 416.26498776 357.87777452 416.27167588 367.9537282 C416.27558503 373.28831005 416.28476549 378.62276481 416.30660057 383.95730591 C416.32699438 388.98052617 416.33323831 394.00356722 416.32873344 399.02682495 C416.32955735 400.8682401 416.3355057 402.70966136 416.34702682 404.55104065 C416.36201634 407.07080029 416.35834067 409.58988881 416.35017395 412.10966492 C416.35891247 412.83342426 416.367651 413.5571836 416.37665433 414.30287504 C416.31266865 421.63796756 414.16705152 428.03083887 408.9894104 433.36076355 C404.5493592 436.46879939 401.0191437 437.6422185 395.64429379 437.08881187 C394.77599953 437.0036547 393.90770528 436.91849752 393.01309907 436.83075982 C391.5876669 436.68178492 391.5876669 436.68178492 390.13343811 436.52980042 C388.02257921 436.32380612 385.91162485 436.11878837 383.80059147 435.91458988 C382.10167403 435.74783967 382.10167403 435.74783967 380.36843503 435.57772076 C345.2431638 432.18052821 310.0577432 430.11402849 274.79599553 428.82267839 C273.21912733 428.76482768 271.64228752 428.70619776 270.06547755 428.64678115 C194.61238481 425.80669355 126.79097852 424.54025775 68.10609287 478.44811535 C56.8916454 488.97939398 46.59906703 500.28591578 36.5519104 511.92326355 C35.79135393 512.80101661 35.03079745 513.67876966 34.24719381 514.5831213 C17.24880088 534.25537083 1.18404395 554.55725596 -13.46747684 576.0429287 C-13.90292556 576.67880655 -14.33837428 577.31468441 -14.78701842 577.96983129 C-15.94268584 579.66401714 -17.08743698 581.36563513 -18.23131466 583.06780338 C-18.81847539 583.82448024 -19.40563612 584.58115709 -20.0105896 585.36076355 C-20.6705896 585.36076355 -21.3305896 585.36076355 -22.0105896 585.36076355 C-22.06193828 531.32231805 -22.10970096 477.28387034 -22.13761902 423.2454071 C-22.13803319 422.44578064 -22.13844736 421.64615417 -22.13887408 420.8222966 C-22.14785254 403.44478359 -22.15616313 386.06727032 -22.16378559 368.68975666 C-22.16752764 360.16798286 -22.17141729 351.64620913 -22.17538452 343.12443542 C-22.1757768 342.27641085 -22.17616908 341.42838627 -22.17657324 340.55466398 C-22.18936014 313.06154457 -22.2118962 285.56844363 -22.23948126 258.07533542 C-22.26777409 229.825551 -22.28624478 201.5757768 -22.29233457 173.32597845 C-22.29319905 169.3370394 -22.29417596 165.34810038 -22.29522133 161.35916138 C-22.2954236 160.57407129 -22.29562587 159.7889812 -22.29583427 158.9801005 C-22.29938114 146.33593503 -22.31329998 133.69180117 -22.3310857 121.0476486 C-22.34874 108.33987027 -22.3554954 95.63212332 -22.35109373 82.92433316 C-22.3490111 76.03740197 -22.35177612 69.15055558 -22.36820602 62.26364136 C-22.38277029 55.96186643 -22.38356445 49.66024712 -22.37328628 43.35846514 C-22.37201536 41.07569682 -22.37585015 38.79291892 -22.38523915 36.51016957 C-22.39724412 33.41185931 -22.3908099 30.31411394 -22.37973309 27.21581268 C-22.38761413 26.32556058 -22.39549517 25.43530848 -22.40361503 24.51807904 C-22.33487025 16.03281858 -20.08512901 9.43530296 -14.0105896 3.36076355 C-9.33057847 0.47373592 -5.38123998 -0.06445321 0 0 Z " fill="#FE6600" transform="translate(22.010589599609375,-0.3607635498046875)"/>
<path d="M0 0 C47.57549284 -0.20151517 47.57549284 -0.20151517 67.50390625 -0.24414062 C81.26685902 -0.27381487 95.0296588 -0.30870945 108.79248047 -0.37719727 C118.81565402 -0.4270517 128.83870351 -0.4592957 138.8619976 -0.47044247 C144.16873406 -0.47695772 149.47511563 -0.49225733 154.78173828 -0.52865028 C159.77877838 -0.56264177 164.77531811 -0.57304649 169.77246284 -0.56553841 C171.60422041 -0.56691153 173.43599508 -0.57682519 175.26765251 -0.59602737 C191.97743509 -0.76258022 191.97743509 -0.76258022 197.61146545 3.57830524 C203.75998274 9.873658 205.15594985 14.81631581 205.12025452 23.54229736 C205.12153615 24.68673502 205.12153615 24.68673502 205.12284368 25.85429263 C205.12449157 28.4123257 205.1189884 30.97029328 205.11352539 33.52832031 C205.11324334 35.36139932 205.11340159 37.19447843 205.1139679 39.02755737 C205.11425519 44.00651043 205.10836943 48.98543947 205.10139394 53.96438694 C205.0951491 59.16674745 205.0945557 64.36910849 205.09336853 69.57147217 C205.09025856 79.42406638 205.08204965 89.27664951 205.07201904 99.12923884 C205.05875928 112.44221533 205.0533553 125.75519484 205.04751682 139.06817627 C205.03810956 160.04545915 205.01818839 181.02271865 205 202 C175.63 202 146.26 202 116 202 C116 164.71 116 127.42 116 89 C77.72 89 39.44 89 0 89 C0 59.63 0 30.26 0 0 Z " fill="#FEFEFE" transform="translate(233,0)"/>
<path d="M0 0 C18.02625 -0.061875 36.0525 -0.12375 54.625 -0.1875 C60.31314941 -0.21481201 66.00129883 -0.24212402 71.86181641 -0.27026367 C78.81713867 -0.28381348 78.81713867 -0.28381348 82.07504272 -0.28633118 C84.34646366 -0.29093262 86.61787734 -0.3014729 88.88925171 -0.31672668 C92.33336078 -0.33869644 95.77702272 -0.34171765 99.22119141 -0.34057617 C100.23012262 -0.3513705 101.23905384 -0.36216482 102.27855873 -0.37328625 C108.50175162 -0.34568914 113.02430993 0.31679229 117.828125 4.6484375 C118.29734375 5.21820313 118.7665625 5.78796875 119.25 6.375 C119.72953125 6.93960938 120.2090625 7.50421875 120.703125 8.0859375 C124.49410821 13.68106332 124.27439784 18.94309354 124.22705078 25.48168945 C124.22729185 26.55280818 124.22753292 27.62392691 124.2277813 28.72750378 C124.22629031 32.18951453 124.21106716 35.65130909 124.1953125 39.11328125 C124.1923714 41.25272518 124.19033137 43.39217055 124.18920898 45.53161621 C124.17872936 53.45859944 124.15080692 61.38555185 124.125 69.3125 C124.08375 87.029375 124.0425 104.74625 124 123 C83.08 123 42.16 123 0 123 C0 82.41 0 41.82 0 0 Z " fill="#FF6500" transform="translate(157,157)"/>
<path d="M0 0 C9.84563015 7.83175125 9.84563015 7.83175125 10.75 13.1875 C11.41 13.1875 12.07 13.1875 12.75 13.1875 C12.976875 12.65125 13.20375 12.115 13.4375 11.5625 C17.38887302 4.41239645 22.59154238 0.86434414 29.75 -2.8125 C30.41515625 -3.15667969 31.0803125 -3.50085938 31.765625 -3.85546875 C40.92933487 -7.69773293 53.73817094 -7.27242158 63 -4.0625 C73.08064473 0.36314891 79.81157971 6.92766661 84.0234375 17.109375 C85.72773209 21.98402403 85.88663744 26.49074296 85.86352539 31.62792969 C85.86367142 32.47707443 85.86381744 33.32621918 85.8639679 34.20109558 C85.86327201 37.0038815 85.85549476 39.80660071 85.84765625 42.609375 C85.84579092 44.55421919 85.84436756 46.49906386 85.84336853 48.44390869 C85.83955242 53.55997009 85.82972984 58.67600305 85.81866455 63.79205322 C85.80843098 69.01370865 85.80386674 74.23536868 85.79882812 79.45703125 C85.78810678 89.70053533 85.77051728 99.94401085 85.75 110.1875 C75.19 110.1875 64.63 110.1875 53.75 110.1875 C53.69392578 103.03320312 53.69392578 103.03320312 53.63671875 95.734375 C53.6063979 92.6900699 53.57522334 89.64582038 53.54101562 86.6015625 C53.48694936 81.78290821 53.43583138 76.96436383 53.40356445 72.14550781 C53.37731381 68.25493646 53.33676313 64.36474005 53.28681374 60.47440338 C53.27029055 58.99951131 53.25868665 57.5245546 53.25238609 56.04958344 C53.19493757 40.93209084 53.19493757 40.93209084 47.8125 27.0625 C43.1648263 22.83734209 38.91170866 22.68261576 32.79296875 22.82421875 C28.11139214 23.38312327 25.02528198 24.78332961 21.75 28.1875 C16.92740242 35.43345286 15.66016527 42.31517547 15.54467773 50.92724609 C15.53477814 51.57185791 15.52487854 52.21646973 15.51467896 52.88061523 C15.4833366 54.99068654 15.45841565 57.10078029 15.43359375 59.2109375 C15.4130006 60.68210401 15.39200354 62.15326492 15.37062073 63.62442017 C15.31564368 67.48109374 15.26612782 71.33781854 15.21777344 75.19458008 C15.15850655 79.83030247 15.09241373 84.46593203 15.02747345 89.10157776 C14.92977087 96.13016141 14.84070527 103.15880688 14.75 110.1875 C3.86 110.1875 -7.03 110.1875 -18.25 110.1875 C-18.28738281 105.09441406 -18.32476563 100.00132812 -18.36328125 94.75390625 C-18.39358267 91.51363903 -18.42474465 88.27342529 -18.45898438 85.03320312 C-18.51316493 79.89822187 -18.56428012 74.76334641 -18.59643555 69.62817383 C-18.62258113 65.48475526 -18.66306164 61.34169507 -18.71318626 57.19849968 C-18.7297793 55.6234377 -18.74134042 54.04831384 -18.74761391 52.47317696 C-18.29777615 39.17603079 -18.29777615 39.17603079 -23.70137024 27.58448792 C-28.69141245 23.25769262 -32.09770464 22.88426982 -38.49609375 22.984375 C-43.05905288 23.32093369 -45.74669702 24.57914693 -48.87109375 27.921875 C-53.93699623 34.19047375 -55.48014017 40.25856566 -55.56884766 48.31616211 C-55.58391609 49.32718994 -55.58391609 49.32718994 -55.59928894 50.35864258 C-55.62989249 52.56070187 -55.64709154 54.76264092 -55.6640625 56.96484375 C-55.6827926 58.5018465 -55.70236737 60.03883917 -55.7227478 61.57582092 C-55.77388063 65.60179679 -55.81360663 69.62780592 -55.85089111 73.65393066 C-55.89812246 78.49496401 -55.95963884 83.33583471 -56.01873779 88.17673492 C-56.10672007 95.51359028 -56.17664848 102.85041811 -56.25 110.1875 C-67.14 110.1875 -78.03 110.1875 -89.25 110.1875 C-89.25 72.8975 -89.25 35.6075 -89.25 -2.8125 C-78.36 -2.8125 -67.47 -2.8125 -56.25 -2.8125 C-55.755 2.1375 -55.755 2.1375 -55.25 7.1875 C-54.71632813 6.65640625 -54.18265625 6.1253125 -53.6328125 5.578125 C-38.86114514 -8.42684683 -17.51979214 -9.77065331 0 0 Z " fill="#FEFEFE" transform="translate(1043.25,214.8125)"/>
<path d="M0 0 C83.57368311 0 83.57368311 0 99.74609375 15.5234375 C111.65893606 28.61311172 114.86589287 44.41909073 114.17919922 61.60009766 C113.40254587 72.0013271 110.17571196 81.55499755 104 90 C103.2575 91.051875 102.515 92.10375 101.75 93.1875 C89.98461201 105.22028318 75.3352577 108.70728176 59 110 C50.75 110 42.5 110 34 110 C34 130.79 34 151.58 34 173 C22.78 173 11.56 173 0 173 C0 115.91 0 58.82 0 0 Z M34 30 C34 46.5 34 63 34 80 C53.70757758 81.06422769 53.70757758 81.06422769 71 73 C77.48752014 64.92254057 78.84272285 58.29587479 78 48 C76.33620564 41.52497862 71.67307206 36.38499013 66 33 C54.22802137 28.94639109 54.22802137 28.94639109 34 30 Z " fill="#FEFEFE" transform="translate(583,152)"/>
<path d="M0 0 C12.55223795 10.47783775 19.28706987 24.9961281 21.25732422 41.02734375 C22.74940968 57.99833169 17.64995438 74.79153631 6.69140625 87.87109375 C-5.08480571 100.38471557 -20.8556875 106.68360027 -37.8515625 107.40625 C-57.14854331 107.87796509 -74.80551648 104.61958122 -89.99609375 91.99609375 C-102.10710283 80.10974082 -108.48831262 64.70934193 -108.87109375 47.74609375 C-108.70860276 30.63037622 -102.59806179 14.99434064 -90.46875 2.81640625 C-66.74633664 -19.154688 -25.39392928 -18.64806104 0 0 Z M-67.55859375 26.12109375 C-73.91579094 34.42264647 -75.40688977 42.80689139 -74.55859375 53.12109375 C-72.93872677 61.80575872 -68.30113852 68.44437571 -61.12109375 73.49609375 C-53.02730992 78.44378885 -44.1076452 79.69475072 -34.84375 77.46875 C-25.59403648 74.14797457 -18.882183 67.90830754 -14.55859375 59.12109375 C-11.1821097 50.4387062 -11.80359859 42.27351125 -15.23046875 33.73046875 C-19.04341187 26.23915698 -25.53014227 20.11840874 -33.3515625 17.01171875 C-45.84797948 13.54133742 -58.81168658 16.41470442 -67.55859375 26.12109375 Z " fill="#FEFEFE" transform="translate(909.55859375,221.87890625)"/>
<path d="M0 0 C0.85207031 0.32871094 1.70414063 0.65742188 2.58203125 0.99609375 C15.24576534 6.61793577 24.53660665 17.3904856 29.8984375 29.96484375 C33.93822297 41.09574202 34 50.93865159 34 63 C6.28 63 -21.44 63 -50 63 C-46.80932471 76.68350304 -46.80932471 76.68350304 -37.94140625 86.33203125 C-30.07218733 90.41824952 -21.82832356 91.46105114 -13.1328125 89.28125 C-7.26904237 87.07119682 -1.91674666 84.22361938 1.375 78.6875 C3 77 3 77 6.3828125 76.76953125 C11.85302026 76.88582701 17.14303748 77.95954009 22.5 79 C23.51320313 79.19078125 24.52640625 79.3815625 25.5703125 79.578125 C28.04817439 80.04564611 30.52458268 80.51973328 33 81 C30.889925 92.70653039 22.44668545 101.4868226 13.03125 108.10546875 C-2.41768226 117.76105141 -21.96204279 119.60574121 -39.62036133 115.87060547 C-55.55187735 111.93186749 -67.19166434 103.08757286 -76.05078125 89.390625 C-84.46695392 74.75086973 -85.51846148 54.61356393 -81.9375 38.3125 C-77.24364447 23.44498551 -67.67698606 10.63502205 -54 3 C-37.91002308 -4.30500131 -16.82167591 -6.52269066 0 0 Z M-44 30 C-46.73357391 34.1273116 -48 37.00040149 -48 42 C-31.17 42 -14.34 42 3 42 C1.77726746 34.66360475 -0.44972425 29.68367301 -6.48046875 25.125 C-19.46128292 17.14860607 -33.61244526 18.18210477 -44 30 Z " fill="#FEFEFE" transform="translate(1436,212)"/>
<path d="M0 0 C9.1927586 8.33148676 12.44951153 18.8181683 13.10761261 30.99040222 C13.27474973 36.40439674 13.23001061 41.81866623 13.1953125 47.234375 C13.19157392 48.96600174 13.18873095 50.69763062 13.18673706 52.42926025 C13.17916705 56.94683866 13.159577 61.46428474 13.1373291 65.98181152 C13.11672631 70.60764782 13.10770474 75.23350587 13.09765625 79.859375 C13.07632363 88.90631695 13.04119706 97.95312668 13 107 C2.11 107 -8.78 107 -20 107 C-20.03738281 102.05128906 -20.07476563 97.10257812 -20.11328125 92.00390625 C-20.14358402 88.85478396 -20.17474687 85.70571661 -20.20898438 82.55664062 C-20.26315702 77.56651698 -20.3142724 72.57650201 -20.34643555 67.58618164 C-20.37258841 63.55946707 -20.41307379 59.5331208 -20.46318626 55.50663567 C-20.47977445 53.97623235 -20.49133856 52.44576546 -20.49761391 50.91528511 C-20.48761758 36.92815268 -20.48761758 36.92815268 -26.375 24.5625 C-30.63681353 20.40215822 -34.45031186 19.69520585 -40.3125 19.625 C-46.0606025 19.74826631 -50.52575123 20.20860924 -55 24 C-63.57447207 33.59113207 -63.31310975 44.86979634 -63.4140625 57.09765625 C-63.4328063 58.54212002 -63.45238201 59.98657321 -63.4727478 61.43101501 C-63.52373635 65.20378334 -63.5635384 68.97658704 -63.60089111 72.74951172 C-63.64823773 77.29191015 -63.70969079 81.83413767 -63.76873779 86.37639618 C-63.85654362 93.25086052 -63.92659774 100.12529889 -64 107 C-74.89 107 -85.78 107 -97 107 C-97 69.71 -97 32.42 -97 -6 C-86.11 -6 -75.22 -6 -64 -6 C-63.505 -0.06 -63.505 -0.06 -63 6 C-61.9275 4.80375 -60.855 3.6075 -59.75 2.375 C-43.90406905 -13.52742268 -17.39339986 -12.92081132 0 0 Z " fill="#FEFEFE" transform="translate(1590,218)"/>
<path d="M0 0 C8.28772736 6.07159513 13.11809901 15.23465283 15.0625 25.25 C15.15197412 27.98061266 15.18875525 30.68485969 15.17602539 33.41503906 C15.17617142 34.2349231 15.17631744 35.05480713 15.1764679 35.89953613 C15.17577218 38.60492616 15.16799572 41.31024702 15.16015625 44.015625 C15.15829086 45.89320844 15.15686753 47.77079237 15.15586853 49.64837646 C15.15205289 54.58688707 15.14223071 59.52536821 15.13116455 64.46386719 C15.12092996 69.50455324 15.11636652 74.54524405 15.11132812 79.5859375 C15.1006076 89.47397336 15.08301849 99.36197962 15.0625 109.25 C4.5025 109.25 -6.0575 109.25 -16.9375 109.25 C-16.97488281 104.55265625 -17.01226563 99.8553125 -17.05078125 95.015625 C-17.08110311 92.01689233 -17.11227831 89.01821602 -17.14648438 86.01953125 C-17.20054476 81.27330583 -17.25166283 76.52719184 -17.28393555 71.78076172 C-17.31019166 67.94854213 -17.35074587 64.11670285 -17.40068626 60.28472137 C-17.41720584 58.83215869 -17.42881194 57.37953046 -17.43511391 55.92688751 C-17.48215837 46.06789159 -17.67781159 35.95445473 -22.6875 27.1875 C-28.36094314 22.30203507 -33.69240561 21.6819571 -41.00390625 21.91015625 C-47.38050063 22.64885626 -51.30472767 25.10095493 -55.3125 30.0625 C-59.34260909 35.52228466 -60.18209528 41.64127724 -60.25634766 48.28686523 C-60.27141609 49.28326271 -60.27141609 49.28326271 -60.28678894 50.29978943 C-60.31738569 52.46938301 -60.33458957 54.63885459 -60.3515625 56.80859375 C-60.37029316 58.3231764 -60.38986796 59.83774882 -60.4102478 61.35231018 C-60.46137481 65.31910142 -60.50110388 69.28592641 -60.53839111 73.25286865 C-60.5856271 78.02298564 -60.64714094 82.79293766 -60.70623779 87.56291962 C-60.79421296 94.79187911 -60.86414641 102.02081079 -60.9375 109.25 C-71.8275 109.25 -82.7175 109.25 -93.9375 109.25 C-93.9375 71.96 -93.9375 34.67 -93.9375 -3.75 C-83.0475 -3.75 -72.1575 -3.75 -60.9375 -3.75 C-60.4425 1.695 -60.4425 1.695 -59.9375 7.25 C-58.0503125 5.4246875 -58.0503125 5.4246875 -56.125 3.5625 C-40.78340264 -10.12841916 -17.25444886 -10.49024631 0 0 Z " fill="#FEFEFE" transform="translate(1313.9375,215.75)"/>
<path d="M0 0 C10.56 0 21.12 0 32 0 C32 12.54 32 25.08 32 38 C39.26 38 46.52 38 54 38 C54 47.24 54 56.48 54 66 C46.74 66 39.48 66 32 66 C32 94.05 32 122.1 32 151 C21.44 151 10.88 151 0 151 C0 122.95 0 94.9 0 66 C-4.29 66 -8.58 66 -13 66 C-13 56.76 -13 47.52 -13 38 C-8.71 38 -4.42 38 0 38 C0 25.46 0 12.92 0 0 Z " fill="#FFFFFF" transform="translate(1632,174)"/>
<path d="M0 0 C0.68126953 -0.00773438 1.36253906 -0.01546875 2.06445312 -0.0234375 C6.3938543 -0.00680195 9.91468736 0.66848864 13.9375 2.25 C12.91551121 12.64384344 11.86516028 22.97598086 9.9375 33.25 C8.720625 32.755 7.50375 32.26 6.25 31.75 C-2.55341989 28.83404073 -11.76975692 29.10362846 -20.0625 33.25 C-25.82077409 36.59783377 -28.65992659 42.78984222 -30.61314392 49.0010376 C-31.19548491 51.91557032 -31.22749602 54.69827788 -31.26782227 57.67089844 C-31.28776749 58.97194519 -31.30771271 60.27299194 -31.32826233 61.61346436 C-31.34524418 63.0287667 -31.36212307 64.44407028 -31.37890625 65.859375 C-31.39948755 67.31097999 -31.42048433 68.76257914 -31.44187927 70.21417236 C-31.49697851 74.02812972 -31.54644115 77.84214007 -31.59472656 81.65618896 C-31.65388046 86.23596471 -31.72004137 90.81564396 -31.78502655 95.39533997 C-31.88288318 102.34683419 -31.97184362 109.29839134 -32.0625 116.25 C-42.9525 116.25 -53.8425 116.25 -65.0625 116.25 C-65.0625 78.96 -65.0625 41.67 -65.0625 3.25 C-54.1725 3.25 -43.2825 3.25 -32.0625 3.25 C-31.5675 9.685 -31.5675 9.685 -31.0625 16.25 C-30.093125 15.05375 -29.12375 13.8575 -28.125 12.625 C-20.34920141 3.76530221 -11.85166815 -0.13531876 0 0 Z " fill="#FEFEFE" transform="translate(781.0625,208.75)"/>
<path d="M0 0 C10.89 0 21.78 0 33 0 C33 37.29 33 74.58 33 113 C22.11 113 11.22 113 0 113 C0 75.71 0 38.42 0 0 Z " fill="#FFFFFF" transform="translate(1158,212)"/>
<path d="M0 0 C3.63 0 7.26 0 11 0 C11.33 10.89 11.66 21.78 12 33 C14.31 32.01 16.62 31.02 19 30 C24.8467379 29.44316782 29.88577615 29.93759051 35 33 C40.67714797 37.95216837 43.44110363 42.75701977 44.24609375 50.30859375 C44.61799383 57.53247098 43.13863847 64.23984896 38.421875 69.890625 C34.02478769 73.97080512 29.625336 76.01138253 23.51171875 75.9921875 C18.6342786 75.65979899 14.98475359 75.05497775 11 72 C11 72.66 11 73.32 11 74 C7.37 74 3.74 74 0 74 C0 49.58 0 25.16 0 0 Z M12.25 44.6875 C9.62298086 49.54748541 9.6029336 53.59858917 11.0625 58.75 C13.347898 62.58357084 14.93116862 64.15751032 19 66 C21.92886111 66.33308617 24.24572963 66.05410347 27 65 C30.78683015 61.77716583 32.21480698 59.39299231 33 54.5 C33.24353221 50.23818632 32.48387345 47.56021861 30 44 C27.30970795 41.23699735 25.83149741 40.12126004 22 39.5625 C17.76577299 40.17999144 15.30007337 41.74635782 12.25 44.6875 Z " fill="#FEFEFE" transform="translate(1571,363)"/>
<path d="M0 0 C3.3 0 6.6 0 10 0 C10.33 10.89 10.66 21.78 11 33 C12.98 32.01 14.96 31.02 17 30 C22.83898568 29.44390613 26.801019 30.00058788 32 33 C36.64846433 38.74941641 37.12730239 42.93821613 37.09765625 50.171875 C37.0962413 50.8542926 37.09482635 51.53671021 37.09336853 52.23980713 C37.08779084 54.40991684 37.07524254 56.5799217 37.0625 58.75 C37.05748211 60.22525892 37.05291971 61.70051947 37.04882812 63.17578125 C37.03782875 66.78388798 37.02057953 70.39193375 37 74 C33.37 74 29.74 74 26 74 C25.98541748 73.14245117 25.97083496 72.28490234 25.95581055 71.40136719 C25.89464522 68.21039587 25.82047238 65.02006413 25.73754883 61.82958984 C25.70435807 60.45047333 25.67630783 59.07122289 25.65356445 57.69189453 C25.61991358 55.70577694 25.56605271 53.72003441 25.51171875 51.734375 C25.48553467 50.54038086 25.45935059 49.34638672 25.43237305 48.11621094 C24.96925254 44.77839609 24.39582644 43.33597504 22 41 C19.04279372 40.33319632 19.04279372 40.33319632 16 41 C13.39050096 42.90422903 12.2198608 44.14191053 11.41430664 47.28588867 C10.98151686 50.12108253 10.79086987 52.87247621 10.68359375 55.73828125 C10.64169922 56.80498047 10.59980469 57.87167969 10.55664062 58.97070312 C10.51732422 60.07349609 10.47800781 61.17628906 10.4375 62.3125 C10.39431641 63.43462891 10.35113281 64.55675781 10.30664062 65.71289062 C10.20085213 68.47514569 10.09876328 71.2374863 10 74 C6.7 74 3.4 74 0 74 C0 49.58 0 25.16 0 0 Z " fill="#FEFEFE" transform="translate(1268,363)"/>
<path d="M0 0 C2.5 1.5625 2.5 1.5625 3.5 2.5625 C3.83 1.5725 4.16 0.5825 4.5 -0.4375 C7.8 -0.4375 11.1 -0.4375 14.5 -0.4375 C14.5 13.7525 14.5 27.9425 14.5 42.5625 C11.2 42.5625 7.9 42.5625 4.5 42.5625 C4.17 41.9025 3.84 41.2425 3.5 40.5625 C3.00371094 40.85125 2.50742188 41.14 1.99609375 41.4375 C-3.39033393 44.38112651 -7.28699145 45.42349183 -13.46875 44.16015625 C-19.43152397 42.40572468 -23.06162786 38.63642214 -26.5 33.5625 C-29.71422742 27.19811613 -29.4984861 19.14149486 -28 12.26953125 C-25.55055132 5.96498437 -20.64108173 2.05604925 -14.6796875 -0.7109375 C-9.4761591 -2.44544697 -5.01951622 -2.06158702 0 0 Z M-15.5 12.5625 C-18.26119183 16.97665021 -18.15297018 21.51392571 -17.5 26.5625 C-15.8899961 29.78250781 -14.50907273 31.73361883 -11.75 34 C-8.20020709 34.88744823 -4.95212761 34.64471461 -1.5 33.5625 C1.74485153 30.86996362 4.26609055 28.6945271 4.73828125 24.390625 C4.90542574 18.58455321 4.56030848 15.07395387 0.5 10.5625 C-5.14890336 6.41997087 -10.49712578 8.46923927 -15.5 12.5625 Z " fill="#FEFEFE" transform="translate(1532.5,394.4375)"/>
<path d="M0 0 C4.41422732 4.21803944 6.36418596 8.23160311 8 14 C8 16.97 8 19.94 8 23 C-1.9 23 -11.8 23 -22 23 C-19.23440668 29.18136248 -19.23440668 29.18136248 -14 32 C-9.3945905 32 -7.56098585 31.48937063 -4.0625 28.4375 C-3.381875 27.633125 -2.70125 26.82875 -2 26 C2.43090471 27.20842856 4.98112756 28.51668565 8 32 C3.24371202 38.63045443 -0.90423913 41.66380646 -9 43 C-15.809515 43.70443259 -20.97136823 41.78964605 -26.75 38.375 C-31.7083675 33.14116764 -33.25785301 27.63916136 -33.5 20.5 C-33.25418964 13.70453305 -31.96956204 8.33626341 -27.38671875 3.1875 C-19.58669569 -4.00719976 -9.26621281 -5.26941286 0 0 Z M-21 12 C-21 12.66 -21 13.32 -21 14 C-15.06 14 -9.12 14 -3 14 C-5.55535135 9.28295823 -5.55535135 9.28295823 -8 7 C-14.31440543 6.2753961 -16.94669509 6.6800373 -21 12 Z " fill="#FEFEFE" transform="translate(1184,396)"/>
<path d="M0 0 C4.14209674 2.93789955 7.28721191 6.52179198 8.89453125 11.34375 C9.40202042 17.56049229 9.66651455 23.11164413 5.89453125 28.34375 C1.02774721 33.33070155 -3.3409187 36.33162931 -10.41796875 36.71875 C-16.05378541 36.56871162 -20.41884408 34.70988899 -24.64453125 30.98828125 C-28.37322569 26.92160574 -30.05854237 22.64619381 -30.13671875 17.14453125 C-29.7193019 10.99806817 -28.0870312 6.02022234 -23.42578125 1.8359375 C-16.1573527 -3.62318266 -8.0475098 -4.44438411 0 0 Z " fill="#FEFEFE" transform="translate(1185.10546875,148.65625)"/>
<path d="M0 0 C5.32120959 3.8980954 8.68800624 8.51031658 10 15 C10.91472749 22.06626988 9.89829853 27.97955079 6 34 C0.84327176 40.11860501 -5.6931961 42.53855672 -13.5 43.375 C-21.02013552 42.56927119 -26.43527022 40.58877036 -31.55859375 34.87109375 C-35.85033868 29.29996686 -36.61694491 23.92505943 -36.40234375 17.06640625 C-35.60520162 10.99109972 -33.4572394 6.14680524 -28.8046875 2.08203125 C-19.91667399 -4.0926448 -9.80567726 -5.04598721 0 0 Z M-22 10 C-25.28916231 14.71446597 -25.52893989 18.44613115 -25 24 C-23.48903791 27.23777592 -21.71008524 29.68434031 -19 32 C-14.45558274 33.44555749 -10.95152935 33.44052285 -6.625 31.4375 C-3.16826779 28.22767723 -1.15785274 25.66436293 -0.87109375 20.82421875 C-1.08721867 16.92742103 -1.7585572 13.7376396 -4 10.5 C-9.57269839 5.85608467 -16.06593317 5.62009353 -22 10 Z " fill="#FEFEFE" transform="translate(1423,396)"/>
<path d="M0 0 C4.49608985 2.02942771 6.62545863 3.72441034 8.81640625 8.2734375 C9.0683056 11.06961052 9.16772126 13.63034565 9.109375 16.41796875 C9.10513016 17.18775558 9.10088531 17.95754242 9.09651184 18.75065613 C9.07979222 21.19611396 9.04215395 23.64073107 9.00390625 26.0859375 C8.98885066 27.74933701 8.97516379 29.41274951 8.96289062 31.07617188 C8.9299109 35.14224832 8.87817631 39.20770063 8.81640625 43.2734375 C5.51640625 43.2734375 2.21640625 43.2734375 -1.18359375 43.2734375 C-1.20341309 42.48171143 -1.22323242 41.68998535 -1.24365234 40.87426758 C-1.33906535 37.2778299 -1.44867966 33.68195999 -1.55859375 30.0859375 C-1.58953125 28.84005859 -1.62046875 27.59417969 -1.65234375 26.31054688 C-1.69101563 25.10849609 -1.7296875 23.90644531 -1.76953125 22.66796875 C-1.80095215 21.56300049 -1.83237305 20.45803223 -1.86474609 19.31958008 C-2.20935738 16.02730212 -2.75567806 12.70135319 -5.18359375 10.2734375 C-9.86369962 9.80624293 -9.86369962 9.80624293 -14.05859375 11.5234375 C-16.40645264 15.17566244 -16.35428297 19.10495182 -16.5 23.3515625 C-16.54189453 24.51171875 -16.58378906 25.671875 -16.62695312 26.8671875 C-16.68592773 28.67703125 -16.68592773 28.67703125 -16.74609375 30.5234375 C-16.78927734 31.74546875 -16.83246094 32.9675 -16.87695312 34.2265625 C-16.9829673 37.2420767 -17.08503311 40.25767198 -17.18359375 43.2734375 C-20.81359375 43.2734375 -24.44359375 43.2734375 -28.18359375 43.2734375 C-28.18359375 29.0834375 -28.18359375 14.8934375 -28.18359375 0.2734375 C-24.55359375 0.2734375 -20.92359375 0.2734375 -17.18359375 0.2734375 C-16.85359375 0.9334375 -16.52359375 1.5934375 -16.18359375 2.2734375 C-15.35859375 1.7784375 -14.53359375 1.2834375 -13.68359375 0.7734375 C-8.86932035 -1.28982253 -4.92262421 -1.63793936 0 0 Z " fill="#FEFEFE" transform="translate(1356.18359375,393.7265625)"/>
<path d="M0 0 C13.86 0 27.72 0 42 0 C42 3.3 42 6.6 42 10 C36.72 10 31.44 10 26 10 C26 28.81 26 47.62 26 67 C22.37 67 18.74 67 15 67 C15 48.19 15 29.38 15 10 C10.05 10 5.1 10 0 10 C0 6.7 0 3.4 0 0 Z " fill="#FFFFFF" transform="translate(1097,370)"/>
<path d="M0 0 C3.63 0 7.26 0 11 0 C11 18.81 11 37.62 11 57 C17.6 57 24.2 57 31 57 C31 60.3 31 63.6 31 67 C20.77 67 10.54 67 0 67 C0 44.89 0 22.78 0 0 Z " fill="#FFFFFF" transform="translate(1456,370)"/>
<path d="M0 0 C0 3.96 0 7.92 0 12 C-1.32 11.34 -2.64 10.68 -4 10 C-8.14300316 7.98448495 -11.39829545 7.51561005 -16 8 C-19.32710068 9.69493808 -21.38275694 11.06071708 -23.4375 14.1875 C-24.26205925 18.31029625 -24.11793199 21.9401417 -23 26 C-20.3531351 29.84998531 -18.68909947 30.80795588 -14.1875 32.0625 C-9.40201908 32.41664375 -5.99186842 30.41761045 -2 28 C-1.34 27.67 -0.68 27.34 0 27 C0 31.29 0 35.58 0 40 C-8.68868015 43.25825506 -15.06513124 44.27386212 -23.89453125 40.9609375 C-29.20375603 38.53780337 -32.0396421 35.49845243 -34.375 30.25 C-37.01117936 22.80472356 -36.71178182 16.39239512 -33.984375 9.0078125 C-32.51597398 6.01274058 -30.54815727 4.11310603 -28 2 C-27.38125 1.443125 -26.7625 0.88625 -26.125 0.3125 C-17.95339211 -4.73466958 -8.24686712 -4.30271328 0 0 Z " fill="#FEFEFE" transform="translate(1247,396)"/>
<path d="M0 0 C3.18580636 2.3574967 4.18076649 3.53556596 5.125 7.3125 C-0.27337398 11.36128049 -0.27337398 11.36128049 -3.1875 11.125 C-4.875 10.3125 -4.875 10.3125 -5.875 9.3125 C-7.54117115 9.27186168 -9.20888095 9.269779 -10.875 9.3125 C-10.875 10.3025 -10.875 11.2925 -10.875 12.3125 C-9.53695313 12.98345703 -9.53695313 12.98345703 -8.171875 13.66796875 C-7.00140625 14.27253906 -5.8309375 14.87710937 -4.625 15.5 C-3.46484375 16.09167969 -2.3046875 16.68335938 -1.109375 17.29296875 C2.2178917 19.37050122 4.06003633 20.99558976 6.125 24.3125 C7.15026487 28.82632845 7.14319867 33.34932927 4.984375 37.51171875 C1.92977649 41.34604372 -0.96690119 43.41101246 -5.875 44.3125 C-11.34353187 44.80963926 -15.05338925 43.95073984 -19.875 41.3125 C-22.90679684 38.20091904 -23.80680519 36.58527925 -24.875 32.3125 C-21.905 30.9925 -18.935 29.6725 -15.875 28.3125 C-15.318125 29.1375 -14.76125 29.9625 -14.1875 30.8125 C-12.12572867 33.5870414 -12.12572867 33.5870414 -9.125 33.625 C-8.01125 33.4703125 -8.01125 33.4703125 -6.875 33.3125 C-6.545 31.6625 -6.215 30.0125 -5.875 28.3125 C-6.38289063 27.99796875 -6.89078125 27.6834375 -7.4140625 27.359375 C-19.08292079 20.10457921 -19.08292079 20.10457921 -21.875 17.3125 C-22.54742195 12.98068703 -22.84460759 8.35188126 -20.9296875 4.32421875 C-15.69759103 -2.30639408 -7.41510213 -3.81568797 0 0 Z " fill="#FEFEFE" transform="translate(1657.875,394.6875)"/>
</svg>
