<svg xmlns="http://www.w3.org/2000/svg" id="Layer_1" viewBox="0 0 209.43 280.31"><metadata></metadata><defs><style>      .cls-1 {        fill: #f60;      }      .cls-2 {        fill: #0a2463;      }    </style></defs><path class="cls-1" d="M134.15,134.15h-58.87v-58.87h49.5c5.17,0,9.36,4.19,9.36,9.36v49.5Z"></path><path class="cls-1" d="M209.43,109.65v90.36c0,5.2-4.22,9.42-9.42,9.42H70.89L0,280.31h0V9.42C0,4.21,4.22,0,9.42,0h89.04v42.3h-56.15s0,0,0,0v124.82h124.83v-57.47h42.31Z"></path><path class="cls-2" d="M209.43,9.35v87.16h-42.31v-54.2h0s-55.51,0-55.51,0V0h88.46c5.17,0,9.36,4.19,9.36,9.35Z"></path></svg>